<svg id="visual" viewBox="0 0 900 300" width="900" height="300" xmlns="http://www.w3.org/2000/svg" xmlns:xlink="http://www.w3.org/1999/xlink" version="1.1"><path d="M0 172L18.8 167.3C37.7 162.7 75.3 153.3 112.8 154C150.3 154.7 187.7 165.3 225.2 173.2C262.7 181 300.3 186 337.8 186.7C375.3 187.3 412.7 183.7 450.2 177.3C487.7 171 525.3 162 562.8 163.5C600.3 165 637.7 177 675.2 179.3C712.7 181.7 750.3 174.3 787.8 174.2C825.3 174 862.7 181 881.3 184.5L900 188L900 301L881.3 301C862.7 301 825.3 301 787.8 301C750.3 301 712.7 301 675.2 301C637.7 301 600.3 301 562.8 301C525.3 301 487.7 301 450.2 301C412.7 301 375.3 301 337.8 301C300.3 301 262.7 301 225.2 301C187.7 301 150.3 301 112.8 301C75.3 301 37.7 301 18.8 301L0 301Z" fill="#e3b33b"></path><path d="M0 152L18.8 158.2C37.7 164.3 75.3 176.7 112.8 181.8C150.3 187 187.7 185 225.2 187.3C262.7 189.7 300.3 196.3 337.8 195.8C375.3 195.3 412.7 187.7 450.2 188C487.7 188.3 525.3 196.7 562.8 192.3C600.3 188 637.7 171 675.2 164.3C712.7 157.7 750.3 161.3 787.8 168C825.3 174.7 862.7 184.3 881.3 189.2L900 194L900 301L881.3 301C862.7 301 825.3 301 787.8 301C750.3 301 712.7 301 675.2 301C637.7 301 600.3 301 562.8 301C525.3 301 487.7 301 450.2 301C412.7 301 375.3 301 337.8 301C300.3 301 262.7 301 225.2 301C187.7 301 150.3 301 112.8 301C75.3 301 37.7 301 18.8 301L0 301Z" fill="#e9a540"></path><path d="M0 170L18.8 178.5C37.7 187 75.3 204 112.8 207.3C150.3 210.7 187.7 200.3 225.2 194C262.7 187.7 300.3 185.3 337.8 190.2C375.3 195 412.7 207 450.2 208.2C487.7 209.3 525.3 199.7 562.8 196.2C600.3 192.7 637.7 195.3 675.2 196.3C712.7 197.3 750.3 196.7 787.8 198.2C825.3 199.7 862.7 203.3 881.3 205.2L900 207L900 301L881.3 301C862.7 301 825.3 301 787.8 301C750.3 301 712.7 301 675.2 301C637.7 301 600.3 301 562.8 301C525.3 301 487.7 301 450.2 301C412.7 301 375.3 301 337.8 301C300.3 301 262.7 301 225.2 301C187.7 301 150.3 301 112.8 301C75.3 301 37.7 301 18.8 301L0 301Z" fill="#eb9747"></path><path d="M0 207L18.8 206.3C37.7 205.7 75.3 204.3 112.8 201.5C150.3 198.7 187.7 194.3 225.2 194.2C262.7 194 300.3 198 337.8 204.8C375.3 211.7 412.7 221.3 450.2 221.7C487.7 222 525.3 213 562.8 210.3C600.3 207.7 637.7 211.3 675.2 212.3C712.7 213.3 750.3 211.7 787.8 209.3C825.3 207 862.7 204 881.3 202.5L900 201L900 301L881.3 301C862.7 301 825.3 301 787.8 301C750.3 301 712.7 301 675.2 301C637.7 301 600.3 301 562.8 301C525.3 301 487.7 301 450.2 301C412.7 301 375.3 301 337.8 301C300.3 301 262.7 301 225.2 301C187.7 301 150.3 301 112.8 301C75.3 301 37.7 301 18.8 301L0 301Z" fill="#eb8a50"></path><path d="M0 238L18.8 234.2C37.7 230.3 75.3 222.7 112.8 218.5C150.3 214.3 187.7 213.7 225.2 212C262.7 210.3 300.3 207.7 337.8 207.3C375.3 207 412.7 209 450.2 211.5C487.7 214 525.3 217 562.8 220.8C600.3 224.7 637.7 229.3 675.2 234C712.7 238.7 750.3 243.3 787.8 246C825.3 248.7 862.7 249.3 881.3 249.7L900 250L900 301L881.3 301C862.7 301 825.3 301 787.8 301C750.3 301 712.7 301 675.2 301C637.7 301 600.3 301 562.8 301C525.3 301 487.7 301 450.2 301C412.7 301 375.3 301 337.8 301C300.3 301 262.7 301 225.2 301C187.7 301 150.3 301 112.8 301C75.3 301 37.7 301 18.8 301L0 301Z" fill="#e87e59"></path><path d="M0 244L18.8 240.8C37.7 237.7 75.3 231.3 112.8 232.5C150.3 233.7 187.7 242.3 225.2 243.5C262.7 244.7 300.3 238.3 337.8 236.2C375.3 234 412.7 236 450.2 237.2C487.7 238.3 525.3 238.7 562.8 242.3C600.3 246 637.7 253 675.2 251.7C712.7 250.3 750.3 240.7 787.8 236.3C825.3 232 862.7 233 881.3 233.5L900 234L900 301L881.3 301C862.7 301 825.3 301 787.8 301C750.3 301 712.7 301 675.2 301C637.7 301 600.3 301 562.8 301C525.3 301 487.7 301 450.2 301C412.7 301 375.3 301 337.8 301C300.3 301 262.7 301 225.2 301C187.7 301 150.3 301 112.8 301C75.3 301 37.7 301 18.8 301L0 301Z" fill="#e37362"></path><path d="M0 253L18.8 253.7C37.7 254.3 75.3 255.7 112.8 259C150.3 262.3 187.7 267.7 225.2 267.5C262.7 267.3 300.3 261.7 337.8 259.8C375.3 258 412.7 260 450.2 260.8C487.7 261.7 525.3 261.3 562.8 259.5C600.3 257.7 637.7 254.3 675.2 256.7C712.7 259 750.3 267 787.8 267.2C825.3 267.3 862.7 259.7 881.3 255.8L900 252L900 301L881.3 301C862.7 301 825.3 301 787.8 301C750.3 301 712.7 301 675.2 301C637.7 301 600.3 301 562.8 301C525.3 301 487.7 301 450.2 301C412.7 301 375.3 301 337.8 301C300.3 301 262.7 301 225.2 301C187.7 301 150.3 301 112.8 301C75.3 301 37.7 301 18.8 301L0 301Z" fill="#da6a6a"></path><path d="M0 265L18.8 265.7C37.7 266.3 75.3 267.7 112.8 267.7C150.3 267.7 187.7 266.3 225.2 265.7C262.7 265 300.3 265 337.8 268.3C375.3 271.7 412.7 278.3 450.2 281.7C487.7 285 525.3 285 562.8 285.3C600.3 285.7 637.7 286.3 675.2 285.3C712.7 284.3 750.3 281.7 787.8 280.7C825.3 279.7 862.7 280.3 881.3 280.7L900 281L900 301L881.3 301C862.7 301 825.3 301 787.8 301C750.3 301 712.7 301 675.2 301C637.7 301 600.3 301 562.8 301C525.3 301 487.7 301 450.2 301C412.7 301 375.3 301 337.8 301C300.3 301 262.7 301 225.2 301C187.7 301 150.3 301 112.8 301C75.3 301 37.7 301 18.8 301L0 301Z" fill="#cf6372"></path></svg>