<svg id="visual" viewBox="0 0 900 300" width="900" height="300" xmlns="http://www.w3.org/2000/svg" xmlns:xlink="http://www.w3.org/1999/xlink" version="1.1"><path d="M0 137L18.8 137.7C37.7 138.3 75.3 139.7 112.8 148.7C150.3 157.7 187.7 174.3 225.2 182.5C262.7 190.7 300.3 190.3 337.8 182.7C375.3 175 412.7 160 450.2 150.7C487.7 141.3 525.3 137.7 562.8 139.3C600.3 141 637.7 148 675.2 157.3C712.7 166.7 750.3 178.3 787.8 179.2C825.3 180 862.7 170 881.3 165L900 160L900 301L881.3 301C862.7 301 825.3 301 787.8 301C750.3 301 712.7 301 675.2 301C637.7 301 600.3 301 562.8 301C525.3 301 487.7 301 450.2 301C412.7 301 375.3 301 337.8 301C300.3 301 262.7 301 225.2 301C187.7 301 150.3 301 112.8 301C75.3 301 37.7 301 18.8 301L0 301Z" fill="#df5e86"></path><path d="M0 153L18.8 159.5C37.7 166 75.3 179 112.8 184.2C150.3 189.3 187.7 186.7 225.2 188.7C262.7 190.7 300.3 197.3 337.8 200.2C375.3 203 412.7 202 450.2 200.5C487.7 199 525.3 197 562.8 194.3C600.3 191.7 637.7 188.3 675.2 193.5C712.7 198.7 750.3 212.3 787.8 210.3C825.3 208.3 862.7 190.7 881.3 181.8L900 173L900 301L881.3 301C862.7 301 825.3 301 787.8 301C750.3 301 712.7 301 675.2 301C637.7 301 600.3 301 562.8 301C525.3 301 487.7 301 450.2 301C412.7 301 375.3 301 337.8 301C300.3 301 262.7 301 225.2 301C187.7 301 150.3 301 112.8 301C75.3 301 37.7 301 18.8 301L0 301Z" fill="#dc5786"></path><path d="M0 199L18.8 205.5C37.7 212 75.3 225 112.8 223.8C150.3 222.7 187.7 207.3 225.2 196.8C262.7 186.3 300.3 180.7 337.8 179.2C375.3 177.7 412.7 180.3 450.2 184C487.7 187.7 525.3 192.3 562.8 199.3C600.3 206.3 637.7 215.7 675.2 212C712.7 208.3 750.3 191.7 787.8 184C825.3 176.3 862.7 177.7 881.3 178.3L900 179L900 301L881.3 301C862.7 301 825.3 301 787.8 301C750.3 301 712.7 301 675.2 301C637.7 301 600.3 301 562.8 301C525.3 301 487.7 301 450.2 301C412.7 301 375.3 301 337.8 301C300.3 301 262.7 301 225.2 301C187.7 301 150.3 301 112.8 301C75.3 301 37.7 301 18.8 301L0 301Z" fill="#d95087"></path><path d="M0 245L18.8 240.2C37.7 235.3 75.3 225.7 112.8 226C150.3 226.3 187.7 236.7 225.2 235.5C262.7 234.3 300.3 221.7 337.8 216C375.3 210.3 412.7 211.7 450.2 217.8C487.7 224 525.3 235 562.8 238.7C600.3 242.3 637.7 238.7 675.2 229.2C712.7 219.7 750.3 204.3 787.8 201.2C825.3 198 862.7 207 881.3 211.5L900 216L900 301L881.3 301C862.7 301 825.3 301 787.8 301C750.3 301 712.7 301 675.2 301C637.7 301 600.3 301 562.8 301C525.3 301 487.7 301 450.2 301C412.7 301 375.3 301 337.8 301C300.3 301 262.7 301 225.2 301C187.7 301 150.3 301 112.8 301C75.3 301 37.7 301 18.8 301L0 301Z" fill="#d54988"></path><path d="M0 253L18.8 254.2C37.7 255.3 75.3 257.7 112.8 254.5C150.3 251.3 187.7 242.7 225.2 241.8C262.7 241 300.3 248 337.8 245.7C375.3 243.3 412.7 231.7 450.2 230.3C487.7 229 525.3 238 562.8 245C600.3 252 637.7 257 675.2 255.5C712.7 254 750.3 246 787.8 243.7C825.3 241.3 862.7 244.7 881.3 246.3L900 248L900 301L881.3 301C862.7 301 825.3 301 787.8 301C750.3 301 712.7 301 675.2 301C637.7 301 600.3 301 562.8 301C525.3 301 487.7 301 450.2 301C412.7 301 375.3 301 337.8 301C300.3 301 262.7 301 225.2 301C187.7 301 150.3 301 112.8 301C75.3 301 37.7 301 18.8 301L0 301Z" fill="#d1418a"></path><path d="M0 272L18.8 265.5C37.7 259 75.3 246 112.8 240.3C150.3 234.7 187.7 236.3 225.2 237.7C262.7 239 300.3 240 337.8 244.7C375.3 249.3 412.7 257.7 450.2 262.2C487.7 266.7 525.3 267.3 562.8 262.5C600.3 257.7 637.7 247.3 675.2 243.8C712.7 240.3 750.3 243.7 787.8 246.5C825.3 249.3 862.7 251.7 881.3 252.8L900 254L900 301L881.3 301C862.7 301 825.3 301 787.8 301C750.3 301 712.7 301 675.2 301C637.7 301 600.3 301 562.8 301C525.3 301 487.7 301 450.2 301C412.7 301 375.3 301 337.8 301C300.3 301 262.7 301 225.2 301C187.7 301 150.3 301 112.8 301C75.3 301 37.7 301 18.8 301L0 301Z" fill="#cd3a8b"></path><path d="M0 261L18.8 262.7C37.7 264.3 75.3 267.7 112.8 267C150.3 266.3 187.7 261.7 225.2 261.7C262.7 261.7 300.3 266.3 337.8 265.2C375.3 264 412.7 257 450.2 257.7C487.7 258.3 525.3 266.7 562.8 270C600.3 273.3 637.7 271.7 675.2 269.5C712.7 267.3 750.3 264.7 787.8 263C825.3 261.3 862.7 260.7 881.3 260.3L900 260L900 301L881.3 301C862.7 301 825.3 301 787.8 301C750.3 301 712.7 301 675.2 301C637.7 301 600.3 301 562.8 301C525.3 301 487.7 301 450.2 301C412.7 301 375.3 301 337.8 301C300.3 301 262.7 301 225.2 301C187.7 301 150.3 301 112.8 301C75.3 301 37.7 301 18.8 301L0 301Z" fill="#c8338d"></path><path d="M0 291L18.8 289.3C37.7 287.7 75.3 284.3 112.8 281.7C150.3 279 187.7 277 225.2 276.8C262.7 276.7 300.3 278.3 337.8 281.2C375.3 284 412.7 288 450.2 290.3C487.7 292.7 525.3 293.3 562.8 291C600.3 288.7 637.7 283.3 675.2 282.3C712.7 281.3 750.3 284.7 787.8 284C825.3 283.3 862.7 278.7 881.3 276.3L900 274L900 301L881.3 301C862.7 301 825.3 301 787.8 301C750.3 301 712.7 301 675.2 301C637.7 301 600.3 301 562.8 301C525.3 301 487.7 301 450.2 301C412.7 301 375.3 301 337.8 301C300.3 301 262.7 301 225.2 301C187.7 301 150.3 301 112.8 301C75.3 301 37.7 301 18.8 301L0 301Z" fill="#c32c8f"></path></svg>