<svg id="visual" viewBox="0 0 900 300" width="900" height="300" xmlns="http://www.w3.org/2000/svg" xmlns:xlink="http://www.w3.org/1999/xlink" version="1.1"><path d="M0 152L18.8 149.5C37.7 147 75.3 142 112.8 138.8C150.3 135.7 187.7 134.3 225.2 145C262.7 155.7 300.3 178.3 337.8 181.8C375.3 185.3 412.7 169.7 450.2 158.3C487.7 147 525.3 140 562.8 149.8C600.3 159.7 637.7 186.3 675.2 187.5C712.7 188.7 750.3 164.3 787.8 151.3C825.3 138.3 862.7 136.7 881.3 135.8L900 135L900 301L881.3 301C862.7 301 825.3 301 787.8 301C750.3 301 712.7 301 675.2 301C637.7 301 600.3 301 562.8 301C525.3 301 487.7 301 450.2 301C412.7 301 375.3 301 337.8 301C300.3 301 262.7 301 225.2 301C187.7 301 150.3 301 112.8 301C75.3 301 37.7 301 18.8 301L0 301Z" fill="#e9475f"></path><path d="M0 185L18.8 182C37.7 179 75.3 173 112.8 177.8C150.3 182.7 187.7 198.3 225.2 203C262.7 207.7 300.3 201.3 337.8 201C375.3 200.7 412.7 206.3 450.2 210.3C487.7 214.3 525.3 216.7 562.8 213.2C600.3 209.7 637.7 200.3 675.2 192.3C712.7 184.3 750.3 177.7 787.8 174.8C825.3 172 862.7 173 881.3 173.5L900 174L900 301L881.3 301C862.7 301 825.3 301 787.8 301C750.3 301 712.7 301 675.2 301C637.7 301 600.3 301 562.8 301C525.3 301 487.7 301 450.2 301C412.7 301 375.3 301 337.8 301C300.3 301 262.7 301 225.2 301C187.7 301 150.3 301 112.8 301C75.3 301 37.7 301 18.8 301L0 301Z" fill="#e8425e"></path><path d="M0 183L18.8 181C37.7 179 75.3 175 112.8 181C150.3 187 187.7 203 225.2 206.5C262.7 210 300.3 201 337.8 196.7C375.3 192.3 412.7 192.7 450.2 189.8C487.7 187 525.3 181 562.8 182C600.3 183 637.7 191 675.2 191.8C712.7 192.7 750.3 186.3 787.8 185.8C825.3 185.3 862.7 190.7 881.3 193.3L900 196L900 301L881.3 301C862.7 301 825.3 301 787.8 301C750.3 301 712.7 301 675.2 301C637.7 301 600.3 301 562.8 301C525.3 301 487.7 301 450.2 301C412.7 301 375.3 301 337.8 301C300.3 301 262.7 301 225.2 301C187.7 301 150.3 301 112.8 301C75.3 301 37.7 301 18.8 301L0 301Z" fill="#e73d5d"></path><path d="M0 226L18.8 223.3C37.7 220.7 75.3 215.3 112.8 212C150.3 208.7 187.7 207.3 225.2 209.2C262.7 211 300.3 216 337.8 218.7C375.3 221.3 412.7 221.7 450.2 220.7C487.7 219.7 525.3 217.3 562.8 221.5C600.3 225.7 637.7 236.3 675.2 238.5C712.7 240.7 750.3 234.3 787.8 234.5C825.3 234.7 862.7 241.3 881.3 244.7L900 248L900 301L881.3 301C862.7 301 825.3 301 787.8 301C750.3 301 712.7 301 675.2 301C637.7 301 600.3 301 562.8 301C525.3 301 487.7 301 450.2 301C412.7 301 375.3 301 337.8 301C300.3 301 262.7 301 225.2 301C187.7 301 150.3 301 112.8 301C75.3 301 37.7 301 18.8 301L0 301Z" fill="#e6375c"></path><path d="M0 232L18.8 232.5C37.7 233 75.3 234 112.8 232.8C150.3 231.7 187.7 228.3 225.2 229.7C262.7 231 300.3 237 337.8 237.5C375.3 238 412.7 233 450.2 231.3C487.7 229.7 525.3 231.3 562.8 228.7C600.3 226 637.7 219 675.2 214.5C712.7 210 750.3 208 787.8 215.7C825.3 223.3 862.7 240.7 881.3 249.3L900 258L900 301L881.3 301C862.7 301 825.3 301 787.8 301C750.3 301 712.7 301 675.2 301C637.7 301 600.3 301 562.8 301C525.3 301 487.7 301 450.2 301C412.7 301 375.3 301 337.8 301C300.3 301 262.7 301 225.2 301C187.7 301 150.3 301 112.8 301C75.3 301 37.7 301 18.8 301L0 301Z" fill="#e4315c"></path><path d="M0 257L18.8 252.5C37.7 248 75.3 239 112.8 236.7C150.3 234.3 187.7 238.7 225.2 242.8C262.7 247 300.3 251 337.8 253.7C375.3 256.3 412.7 257.7 450.2 259C487.7 260.3 525.3 261.7 562.8 261C600.3 260.3 637.7 257.7 675.2 252.7C712.7 247.7 750.3 240.3 787.8 235.5C825.3 230.7 862.7 228.3 881.3 227.2L900 226L900 301L881.3 301C862.7 301 825.3 301 787.8 301C750.3 301 712.7 301 675.2 301C637.7 301 600.3 301 562.8 301C525.3 301 487.7 301 450.2 301C412.7 301 375.3 301 337.8 301C300.3 301 262.7 301 225.2 301C187.7 301 150.3 301 112.8 301C75.3 301 37.7 301 18.8 301L0 301Z" fill="#e32a5b"></path><path d="M0 262L18.8 263C37.7 264 75.3 266 112.8 264.7C150.3 263.3 187.7 258.7 225.2 257.5C262.7 256.3 300.3 258.7 337.8 262.8C375.3 267 412.7 273 450.2 275.5C487.7 278 525.3 277 562.8 276.5C600.3 276 637.7 276 675.2 273.7C712.7 271.3 750.3 266.7 787.8 267.3C825.3 268 862.7 274 881.3 277L900 280L900 301L881.3 301C862.7 301 825.3 301 787.8 301C750.3 301 712.7 301 675.2 301C637.7 301 600.3 301 562.8 301C525.3 301 487.7 301 450.2 301C412.7 301 375.3 301 337.8 301C300.3 301 262.7 301 225.2 301C187.7 301 150.3 301 112.8 301C75.3 301 37.7 301 18.8 301L0 301Z" fill="#e2235b"></path><path d="M0 271L18.8 274.5C37.7 278 75.3 285 112.8 285.5C150.3 286 187.7 280 225.2 278C262.7 276 300.3 278 337.8 276.3C375.3 274.7 412.7 269.3 450.2 271.3C487.7 273.3 525.3 282.7 562.8 285.3C600.3 288 637.7 284 675.2 280.5C712.7 277 750.3 274 787.8 273C825.3 272 862.7 273 881.3 273.5L900 274L900 301L881.3 301C862.7 301 825.3 301 787.8 301C750.3 301 712.7 301 675.2 301C637.7 301 600.3 301 562.8 301C525.3 301 487.7 301 450.2 301C412.7 301 375.3 301 337.8 301C300.3 301 262.7 301 225.2 301C187.7 301 150.3 301 112.8 301C75.3 301 37.7 301 18.8 301L0 301Z" fill="#e11a5a"></path></svg>