<svg id="visual" viewBox="0 0 900 300" width="900" height="300" xmlns="http://www.w3.org/2000/svg" xmlns:xlink="http://www.w3.org/1999/xlink" version="1.1"><path d="M0 167L18.8 162.2C37.7 157.3 75.3 147.7 112.8 149C150.3 150.3 187.7 162.7 225.2 169.7C262.7 176.7 300.3 178.3 337.8 176.5C375.3 174.7 412.7 169.3 450.2 165.3C487.7 161.3 525.3 158.7 562.8 163.3C600.3 168 637.7 180 675.2 176.5C712.7 173 750.3 154 787.8 143.5C825.3 133 862.7 131 881.3 130L900 129L900 301L881.3 301C862.7 301 825.3 301 787.8 301C750.3 301 712.7 301 675.2 301C637.7 301 600.3 301 562.8 301C525.3 301 487.7 301 450.2 301C412.7 301 375.3 301 337.8 301C300.3 301 262.7 301 225.2 301C187.7 301 150.3 301 112.8 301C75.3 301 37.7 301 18.8 301L0 301Z" fill="#e9475f"></path><path d="M0 154L18.8 160.2C37.7 166.3 75.3 178.7 112.8 178.3C150.3 178 187.7 165 225.2 164.5C262.7 164 300.3 176 337.8 175.7C375.3 175.3 412.7 162.7 450.2 161.5C487.7 160.3 525.3 170.7 562.8 177.8C600.3 185 637.7 189 675.2 187.5C712.7 186 750.3 179 787.8 174.3C825.3 169.7 862.7 167.3 881.3 166.2L900 165L900 301L881.3 301C862.7 301 825.3 301 787.8 301C750.3 301 712.7 301 675.2 301C637.7 301 600.3 301 562.8 301C525.3 301 487.7 301 450.2 301C412.7 301 375.3 301 337.8 301C300.3 301 262.7 301 225.2 301C187.7 301 150.3 301 112.8 301C75.3 301 37.7 301 18.8 301L0 301Z" fill="#e8425e"></path><path d="M0 179L18.8 179.2C37.7 179.3 75.3 179.7 112.8 186.3C150.3 193 187.7 206 225.2 204.2C262.7 202.3 300.3 185.7 337.8 177.2C375.3 168.7 412.7 168.3 450.2 171.3C487.7 174.3 525.3 180.7 562.8 183C600.3 185.3 637.7 183.7 675.2 185.3C712.7 187 750.3 192 787.8 196.7C825.3 201.3 862.7 205.7 881.3 207.8L900 210L900 301L881.3 301C862.7 301 825.3 301 787.8 301C750.3 301 712.7 301 675.2 301C637.7 301 600.3 301 562.8 301C525.3 301 487.7 301 450.2 301C412.7 301 375.3 301 337.8 301C300.3 301 262.7 301 225.2 301C187.7 301 150.3 301 112.8 301C75.3 301 37.7 301 18.8 301L0 301Z" fill="#e73d5d"></path><path d="M0 194L18.8 197C37.7 200 75.3 206 112.8 206.3C150.3 206.7 187.7 201.3 225.2 201.7C262.7 202 300.3 208 337.8 214.7C375.3 221.3 412.7 228.7 450.2 226.8C487.7 225 525.3 214 562.8 206C600.3 198 637.7 193 675.2 197.5C712.7 202 750.3 216 787.8 221.3C825.3 226.7 862.7 223.3 881.3 221.7L900 220L900 301L881.3 301C862.7 301 825.3 301 787.8 301C750.3 301 712.7 301 675.2 301C637.7 301 600.3 301 562.8 301C525.3 301 487.7 301 450.2 301C412.7 301 375.3 301 337.8 301C300.3 301 262.7 301 225.2 301C187.7 301 150.3 301 112.8 301C75.3 301 37.7 301 18.8 301L0 301Z" fill="#e6385c"></path><path d="M0 230L18.8 228.8C37.7 227.7 75.3 225.3 112.8 223.5C150.3 221.7 187.7 220.3 225.2 219.8C262.7 219.3 300.3 219.7 337.8 221.7C375.3 223.7 412.7 227.3 450.2 230.5C487.7 233.7 525.3 236.3 562.8 238.7C600.3 241 637.7 243 675.2 242.8C712.7 242.7 750.3 240.3 787.8 234.2C825.3 228 862.7 218 881.3 213L900 208L900 301L881.3 301C862.7 301 825.3 301 787.8 301C750.3 301 712.7 301 675.2 301C637.7 301 600.3 301 562.8 301C525.3 301 487.7 301 450.2 301C412.7 301 375.3 301 337.8 301C300.3 301 262.7 301 225.2 301C187.7 301 150.3 301 112.8 301C75.3 301 37.7 301 18.8 301L0 301Z" fill="#e6325c"></path><path d="M0 262L18.8 256.8C37.7 251.7 75.3 241.3 112.8 241.8C150.3 242.3 187.7 253.7 225.2 258.2C262.7 262.7 300.3 260.3 337.8 254.7C375.3 249 412.7 240 450.2 236C487.7 232 525.3 233 562.8 237.7C600.3 242.3 637.7 250.7 675.2 253C712.7 255.3 750.3 251.7 787.8 247.7C825.3 243.7 862.7 239.3 881.3 237.2L900 235L900 301L881.3 301C862.7 301 825.3 301 787.8 301C750.3 301 712.7 301 675.2 301C637.7 301 600.3 301 562.8 301C525.3 301 487.7 301 450.2 301C412.7 301 375.3 301 337.8 301C300.3 301 262.7 301 225.2 301C187.7 301 150.3 301 112.8 301C75.3 301 37.7 301 18.8 301L0 301Z" fill="#e52b5b"></path><path d="M0 254L18.8 256.3C37.7 258.7 75.3 263.3 112.8 262.7C150.3 262 187.7 256 225.2 254.5C262.7 253 300.3 256 337.8 257.7C375.3 259.3 412.7 259.7 450.2 261.2C487.7 262.7 525.3 265.3 562.8 266.3C600.3 267.3 637.7 266.7 675.2 264.3C712.7 262 750.3 258 787.8 258C825.3 258 862.7 262 881.3 264L900 266L900 301L881.3 301C862.7 301 825.3 301 787.8 301C750.3 301 712.7 301 675.2 301C637.7 301 600.3 301 562.8 301C525.3 301 487.7 301 450.2 301C412.7 301 375.3 301 337.8 301C300.3 301 262.7 301 225.2 301C187.7 301 150.3 301 112.8 301C75.3 301 37.7 301 18.8 301L0 301Z" fill="#e4245b"></path><path d="M0 293L18.8 292.8C37.7 292.7 75.3 292.3 112.8 289.5C150.3 286.7 187.7 281.3 225.2 281C262.7 280.7 300.3 285.3 337.8 285C375.3 284.7 412.7 279.3 450.2 275.3C487.7 271.3 525.3 268.7 562.8 268C600.3 267.3 637.7 268.7 675.2 268.8C712.7 269 750.3 268 787.8 269.2C825.3 270.3 862.7 273.7 881.3 275.3L900 277L900 301L881.3 301C862.7 301 825.3 301 787.8 301C750.3 301 712.7 301 675.2 301C637.7 301 600.3 301 562.8 301C525.3 301 487.7 301 450.2 301C412.7 301 375.3 301 337.8 301C300.3 301 262.7 301 225.2 301C187.7 301 150.3 301 112.8 301C75.3 301 37.7 301 18.8 301L0 301Z" fill="#e31b5a"></path></svg>