<svg id="visual" viewBox="0 0 900 300" width="900" height="300" xmlns="http://www.w3.org/2000/svg" xmlns:xlink="http://www.w3.org/1999/xlink" version="1.1"><path d="M0 199L21.5 195.7C43 192.3 86 185.7 128.8 183C171.7 180.3 214.3 181.7 257.2 188C300 194.3 343 205.7 385.8 205C428.7 204.3 471.3 191.7 514.2 192.5C557 193.3 600 207.7 642.8 208.7C685.7 209.7 728.3 197.3 771.2 191.8C814 186.3 857 187.7 878.5 188.3L900 189L900 301L878.5 301C857 301 814 301 771.2 301C728.3 301 685.7 301 642.8 301C600 301 557 301 514.2 301C471.3 301 428.7 301 385.8 301C343 301 300 301 257.2 301C214.3 301 171.7 301 128.8 301C86 301 43 301 21.5 301L0 301Z" fill="#e9475f"></path><path d="M0 206L21.5 210C43 214 86 222 128.8 223.7C171.7 225.3 214.3 220.7 257.2 219.7C300 218.7 343 221.3 385.8 220.7C428.7 220 471.3 216 514.2 214.3C557 212.7 600 213.3 642.8 216.7C685.7 220 728.3 226 771.2 223.2C814 220.3 857 208.7 878.5 202.8L900 197L900 301L878.5 301C857 301 814 301 771.2 301C728.3 301 685.7 301 642.8 301C600 301 557 301 514.2 301C471.3 301 428.7 301 385.8 301C343 301 300 301 257.2 301C214.3 301 171.7 301 128.8 301C86 301 43 301 21.5 301L0 301Z" fill="#e73e5d"></path><path d="M0 228L21.5 226.8C43 225.7 86 223.3 128.8 222.3C171.7 221.3 214.3 221.7 257.2 226C300 230.3 343 238.7 385.8 239.2C428.7 239.7 471.3 232.3 514.2 233C557 233.7 600 242.3 642.8 244C685.7 245.7 728.3 240.3 771.2 238.7C814 237 857 239 878.5 240L900 241L900 301L878.5 301C857 301 814 301 771.2 301C728.3 301 685.7 301 642.8 301C600 301 557 301 514.2 301C471.3 301 428.7 301 385.8 301C343 301 300 301 257.2 301C214.3 301 171.7 301 128.8 301C86 301 43 301 21.5 301L0 301Z" fill="#e5345c"></path><path d="M0 269L21.5 267.8C43 266.7 86 264.3 128.8 261.7C171.7 259 214.3 256 257.2 255C300 254 343 255 385.8 253.8C428.7 252.7 471.3 249.3 514.2 247.7C557 246 600 246 642.8 248.5C685.7 251 728.3 256 771.2 256.8C814 257.7 857 254.3 878.5 252.7L900 251L900 301L878.5 301C857 301 814 301 771.2 301C728.3 301 685.7 301 642.8 301C600 301 557 301 514.2 301C471.3 301 428.7 301 385.8 301C343 301 300 301 257.2 301C214.3 301 171.7 301 128.8 301C86 301 43 301 21.5 301L0 301Z" fill="#e3295b"></path><path d="M0 275L21.5 274.3C43 273.7 86 272.3 128.8 272.8C171.7 273.3 214.3 275.7 257.2 274.3C300 273 343 268 385.8 267C428.7 266 471.3 269 514.2 271.3C557 273.7 600 275.3 642.8 274.5C685.7 273.7 728.3 270.3 771.2 267.8C814 265.3 857 263.7 878.5 262.8L900 262L900 301L878.5 301C857 301 814 301 771.2 301C728.3 301 685.7 301 642.8 301C600 301 557 301 514.2 301C471.3 301 428.7 301 385.8 301C343 301 300 301 257.2 301C214.3 301 171.7 301 128.8 301C86 301 43 301 21.5 301L0 301Z" fill="#e11a5a"></path></svg>