<svg id="visual" viewBox="0 0 900 300" width="900" height="300" xmlns="http://www.w3.org/2000/svg" xmlns:xlink="http://www.w3.org/1999/xlink" version="1.1"><path d="M0 194L18.8 184.8C37.7 175.7 75.3 157.3 112.8 158.3C150.3 159.3 187.7 179.7 225.2 181.8C262.7 184 300.3 168 337.8 156.3C375.3 144.7 412.7 137.3 450.2 139.7C487.7 142 525.3 154 562.8 166.3C600.3 178.7 637.7 191.3 675.2 190.2C712.7 189 750.3 174 787.8 175.3C825.3 176.7 862.7 194.3 881.3 203.2L900 212L900 301L881.3 301C862.7 301 825.3 301 787.8 301C750.3 301 712.7 301 675.2 301C637.7 301 600.3 301 562.8 301C525.3 301 487.7 301 450.2 301C412.7 301 375.3 301 337.8 301C300.3 301 262.7 301 225.2 301C187.7 301 150.3 301 112.8 301C75.3 301 37.7 301 18.8 301L0 301Z" fill="#00ba96"></path><path d="M0 226L18.8 222.8C37.7 219.7 75.3 213.3 112.8 205.8C150.3 198.3 187.7 189.7 225.2 183.7C262.7 177.7 300.3 174.3 337.8 177.7C375.3 181 412.7 191 450.2 194.8C487.7 198.7 525.3 196.3 562.8 195.3C600.3 194.3 637.7 194.7 675.2 195.7C712.7 196.7 750.3 198.3 787.8 192C825.3 185.7 862.7 171.3 881.3 164.2L900 157L900 301L881.3 301C862.7 301 825.3 301 787.8 301C750.3 301 712.7 301 675.2 301C637.7 301 600.3 301 562.8 301C525.3 301 487.7 301 450.2 301C412.7 301 375.3 301 337.8 301C300.3 301 262.7 301 225.2 301C187.7 301 150.3 301 112.8 301C75.3 301 37.7 301 18.8 301L0 301Z" fill="#25bc8b"></path><path d="M0 231L18.8 228.3C37.7 225.7 75.3 220.3 112.8 221.3C150.3 222.3 187.7 229.7 225.2 230.7C262.7 231.7 300.3 226.3 337.8 226.8C375.3 227.3 412.7 233.7 450.2 235.5C487.7 237.3 525.3 234.7 562.8 234.2C600.3 233.7 637.7 235.3 675.2 231.2C712.7 227 750.3 217 787.8 207.8C825.3 198.7 862.7 190.3 881.3 186.2L900 182L900 301L881.3 301C862.7 301 825.3 301 787.8 301C750.3 301 712.7 301 675.2 301C637.7 301 600.3 301 562.8 301C525.3 301 487.7 301 450.2 301C412.7 301 375.3 301 337.8 301C300.3 301 262.7 301 225.2 301C187.7 301 150.3 301 112.8 301C75.3 301 37.7 301 18.8 301L0 301Z" fill="#3abd80"></path><path d="M0 240L18.8 231.3C37.7 222.7 75.3 205.3 112.8 198.7C150.3 192 187.7 196 225.2 205.2C262.7 214.3 300.3 228.7 337.8 228.5C375.3 228.3 412.7 213.7 450.2 208.8C487.7 204 525.3 209 562.8 215C600.3 221 637.7 228 675.2 224.2C712.7 220.3 750.3 205.7 787.8 204.5C825.3 203.3 862.7 215.7 881.3 221.8L900 228L900 301L881.3 301C862.7 301 825.3 301 787.8 301C750.3 301 712.7 301 675.2 301C637.7 301 600.3 301 562.8 301C525.3 301 487.7 301 450.2 301C412.7 301 375.3 301 337.8 301C300.3 301 262.7 301 225.2 301C187.7 301 150.3 301 112.8 301C75.3 301 37.7 301 18.8 301L0 301Z" fill="#4cbe74"></path><path d="M0 231L18.8 234.2C37.7 237.3 75.3 243.7 112.8 245.8C150.3 248 187.7 246 225.2 239.3C262.7 232.7 300.3 221.3 337.8 218.2C375.3 215 412.7 220 450.2 220.3C487.7 220.7 525.3 216.3 562.8 219.2C600.3 222 637.7 232 675.2 234.8C712.7 237.7 750.3 233.3 787.8 232.3C825.3 231.3 862.7 233.7 881.3 234.8L900 236L900 301L881.3 301C862.7 301 825.3 301 787.8 301C750.3 301 712.7 301 675.2 301C637.7 301 600.3 301 562.8 301C525.3 301 487.7 301 450.2 301C412.7 301 375.3 301 337.8 301C300.3 301 262.7 301 225.2 301C187.7 301 150.3 301 112.8 301C75.3 301 37.7 301 18.8 301L0 301Z" fill="#5dbe68"></path><path d="M0 272L18.8 267.3C37.7 262.7 75.3 253.3 112.8 251C150.3 248.7 187.7 253.3 225.2 250.3C262.7 247.3 300.3 236.7 337.8 231.3C375.3 226 412.7 226 450.2 231C487.7 236 525.3 246 562.8 249.8C600.3 253.7 637.7 251.3 675.2 248.3C712.7 245.3 750.3 241.7 787.8 240.2C825.3 238.7 862.7 239.3 881.3 239.7L900 240L900 301L881.3 301C862.7 301 825.3 301 787.8 301C750.3 301 712.7 301 675.2 301C637.7 301 600.3 301 562.8 301C525.3 301 487.7 301 450.2 301C412.7 301 375.3 301 337.8 301C300.3 301 262.7 301 225.2 301C187.7 301 150.3 301 112.8 301C75.3 301 37.7 301 18.8 301L0 301Z" fill="#6ebf5b"></path><path d="M0 256L18.8 256.5C37.7 257 75.3 258 112.8 257C150.3 256 187.7 253 225.2 253.3C262.7 253.7 300.3 257.3 337.8 259.7C375.3 262 412.7 263 450.2 263.8C487.7 264.7 525.3 265.3 562.8 262.7C600.3 260 637.7 254 675.2 254.2C712.7 254.3 750.3 260.7 787.8 263.2C825.3 265.7 862.7 264.3 881.3 263.7L900 263L900 301L881.3 301C862.7 301 825.3 301 787.8 301C750.3 301 712.7 301 675.2 301C637.7 301 600.3 301 562.8 301C525.3 301 487.7 301 450.2 301C412.7 301 375.3 301 337.8 301C300.3 301 262.7 301 225.2 301C187.7 301 150.3 301 112.8 301C75.3 301 37.7 301 18.8 301L0 301Z" fill="#7ebf4d"></path><path d="M0 268L18.8 271C37.7 274 75.3 280 112.8 279.8C150.3 279.7 187.7 273.3 225.2 273.2C262.7 273 300.3 279 337.8 279.7C375.3 280.3 412.7 275.7 450.2 276.5C487.7 277.3 525.3 283.7 562.8 282.5C600.3 281.3 637.7 272.7 675.2 271.3C712.7 270 750.3 276 787.8 278.7C825.3 281.3 862.7 280.7 881.3 280.3L900 280L900 301L881.3 301C862.7 301 825.3 301 787.8 301C750.3 301 712.7 301 675.2 301C637.7 301 600.3 301 562.8 301C525.3 301 487.7 301 450.2 301C412.7 301 375.3 301 337.8 301C300.3 301 262.7 301 225.2 301C187.7 301 150.3 301 112.8 301C75.3 301 37.7 301 18.8 301L0 301Z" fill="#8ebe3f"></path></svg>