<svg id="visual" viewBox="0 0 900 300" width="900" height="300" xmlns="http://www.w3.org/2000/svg" xmlns:xlink="http://www.w3.org/1999/xlink" version="1.1"><path d="M0 220L21.5 213.5C43 207 86 194 128.8 193.3C171.7 192.7 214.3 204.3 257.2 210.7C300 217 343 218 385.8 212.2C428.7 206.3 471.3 193.7 514.2 190.7C557 187.7 600 194.3 642.8 195.7C685.7 197 728.3 193 771.2 194.8C814 196.7 857 204.3 878.5 208.2L900 212L900 301L878.5 301C857 301 814 301 771.2 301C728.3 301 685.7 301 642.8 301C600 301 557 301 514.2 301C471.3 301 428.7 301 385.8 301C343 301 300 301 257.2 301C214.3 301 171.7 301 128.8 301C86 301 43 301 21.5 301L0 301Z" fill="#2da6bf"></path><path d="M0 222L21.5 217.7C43 213.3 86 204.7 128.8 207.2C171.7 209.7 214.3 223.3 257.2 229.5C300 235.7 343 234.3 385.8 231C428.7 227.7 471.3 222.3 514.2 217.3C557 212.3 600 207.7 642.8 209.7C685.7 211.7 728.3 220.3 771.2 221.3C814 222.3 857 215.7 878.5 212.3L900 209L900 301L878.5 301C857 301 814 301 771.2 301C728.3 301 685.7 301 642.8 301C600 301 557 301 514.2 301C471.3 301 428.7 301 385.8 301C343 301 300 301 257.2 301C214.3 301 171.7 301 128.8 301C86 301 43 301 21.5 301L0 301Z" fill="#00b1b3"></path><path d="M0 238L21.5 236.2C43 234.3 86 230.7 128.8 232.2C171.7 233.7 214.3 240.3 257.2 238.8C300 237.3 343 227.7 385.8 224.2C428.7 220.7 471.3 223.3 514.2 223.8C557 224.3 600 222.7 642.8 226.3C685.7 230 728.3 239 771.2 242C814 245 857 242 878.5 240.5L900 239L900 301L878.5 301C857 301 814 301 771.2 301C728.3 301 685.7 301 642.8 301C600 301 557 301 514.2 301C471.3 301 428.7 301 385.8 301C343 301 300 301 257.2 301C214.3 301 171.7 301 128.8 301C86 301 43 301 21.5 301L0 301Z" fill="#00ba96"></path><path d="M0 248L21.5 249.5C43 251 86 254 128.8 257.2C171.7 260.3 214.3 263.7 257.2 262.5C300 261.3 343 255.7 385.8 254.7C428.7 253.7 471.3 257.3 514.2 256.3C557 255.3 600 249.7 642.8 247.3C685.7 245 728.3 246 771.2 250.5C814 255 857 263 878.5 267L900 271L900 301L878.5 301C857 301 814 301 771.2 301C728.3 301 685.7 301 642.8 301C600 301 557 301 514.2 301C471.3 301 428.7 301 385.8 301C343 301 300 301 257.2 301C214.3 301 171.7 301 128.8 301C86 301 43 301 21.5 301L0 301Z" fill="#55be6e"></path><path d="M0 273L21.5 275.2C43 277.3 86 281.7 128.8 282.2C171.7 282.7 214.3 279.3 257.2 279.3C300 279.3 343 282.7 385.8 283C428.7 283.3 471.3 280.7 514.2 280C557 279.3 600 280.7 642.8 281.8C685.7 283 728.3 284 771.2 282.8C814 281.7 857 278.3 878.5 276.7L900 275L900 301L878.5 301C857 301 814 301 771.2 301C728.3 301 685.7 301 642.8 301C600 301 557 301 514.2 301C471.3 301 428.7 301 385.8 301C343 301 300 301 257.2 301C214.3 301 171.7 301 128.8 301C86 301 43 301 21.5 301L0 301Z" fill="#8ebe3f"></path></svg>