<svg id="visual" viewBox="0 0 900 300" width="900" height="300" xmlns="http://www.w3.org/2000/svg" xmlns:xlink="http://www.w3.org/1999/xlink" version="1.1"><path d="M0 22L13.7 22.5C27.3 23 54.7 24 82 29.5C109.3 35 136.7 45 163.8 47C191 49 218 43 245.2 39C272.3 35 299.7 33 327 36C354.3 39 381.7 47 409 50.5C436.3 54 463.7 53 491 53.5C518.3 54 545.7 56 573 58.5C600.3 61 627.7 64 654.8 58C682 52 709 37 736.2 33.5C763.3 30 790.7 38 818 40C845.3 42 872.7 38 886.3 36L900 34L900 0L886.3 0C872.7 0 845.3 0 818 0C790.7 0 763.3 0 736.2 0C709 0 682 0 654.8 0C627.7 0 600.3 0 573 0C545.7 0 518.3 0 491 0C463.7 0 436.3 0 409 0C381.7 0 354.3 0 327 0C299.7 0 272.3 0 245.2 0C218 0 191 0 163.8 0C136.7 0 109.3 0 82 0C54.7 0 27.3 0 13.7 0L0 0Z" fill="#68a2a7"></path><path d="M0 97L13.7 96C27.3 95 54.7 93 82 90.5C109.3 88 136.7 85 163.8 83C191 81 218 80 245.2 81.5C272.3 83 299.7 87 327 87.5C354.3 88 381.7 85 409 88.5C436.3 92 463.7 102 491 109.5C518.3 117 545.7 122 573 124C600.3 126 627.7 125 654.8 116.5C682 108 709 92 736.2 92.5C763.3 93 790.7 110 818 112C845.3 114 872.7 101 886.3 94.5L900 88L900 32L886.3 34C872.7 36 845.3 40 818 38C790.7 36 763.3 28 736.2 31.5C709 35 682 50 654.8 56C627.7 62 600.3 59 573 56.5C545.7 54 518.3 52 491 51.5C463.7 51 436.3 52 409 48.5C381.7 45 354.3 37 327 34C299.7 31 272.3 33 245.2 37C218 41 191 47 163.8 45C136.7 43 109.3 33 82 27.5C54.7 22 27.3 21 13.7 20.5L0 20Z" fill="#3d98c5"></path><path d="M0 139L13.7 142.5C27.3 146 54.7 153 82 162.5C109.3 172 136.7 184 163.8 187C191 190 218 184 245.2 178.5C272.3 173 299.7 168 327 163.5C354.3 159 381.7 155 409 166.5C436.3 178 463.7 205 491 209C518.3 213 545.7 194 573 191.5C600.3 189 627.7 203 654.8 207.5C682 212 709 207 736.2 209C763.3 211 790.7 220 818 216C845.3 212 872.7 195 886.3 186.5L900 178L900 86L886.3 92.5C872.7 99 845.3 112 818 110C790.7 108 763.3 91 736.2 90.5C709 90 682 106 654.8 114.5C627.7 123 600.3 124 573 122C545.7 120 518.3 115 491 107.5C463.7 100 436.3 90 409 86.5C381.7 83 354.3 86 327 85.5C299.7 85 272.3 81 245.2 79.5C218 78 191 79 163.8 81C136.7 83 109.3 86 82 88.5C54.7 91 27.3 93 13.7 94L0 95Z" fill="#7281d4"></path><path d="M0 259L13.7 261C27.3 263 54.7 267 82 270.5C109.3 274 136.7 277 163.8 274.5C191 272 218 264 245.2 261.5C272.3 259 299.7 262 327 261C354.3 260 381.7 255 409 257C436.3 259 463.7 268 491 268C518.3 268 545.7 259 573 260C600.3 261 627.7 272 654.8 274C682 276 709 269 736.2 267.5C763.3 266 790.7 270 818 269.5C845.3 269 872.7 264 886.3 261.5L900 259L900 176L886.3 184.5C872.7 193 845.3 210 818 214C790.7 218 763.3 209 736.2 207C709 205 682 210 654.8 205.5C627.7 201 600.3 187 573 189.5C545.7 192 518.3 211 491 207C463.7 203 436.3 176 409 164.5C381.7 153 354.3 157 327 161.5C299.7 166 272.3 171 245.2 176.5C218 182 191 188 163.8 185C136.7 182 109.3 170 82 160.5C54.7 151 27.3 144 13.7 140.5L0 137Z" fill="#c055b0"></path><path d="M0 301L13.7 301C27.3 301 54.7 301 82 301C109.3 301 136.7 301 163.8 301C191 301 218 301 245.2 301C272.3 301 299.7 301 327 301C354.3 301 381.7 301 409 301C436.3 301 463.7 301 491 301C518.3 301 545.7 301 573 301C600.3 301 627.7 301 654.8 301C682 301 709 301 736.2 301C763.3 301 790.7 301 818 301C845.3 301 872.7 301 886.3 301L900 301L900 257L886.3 259.5C872.7 262 845.3 267 818 267.5C790.7 268 763.3 264 736.2 265.5C709 267 682 274 654.8 272C627.7 270 600.3 259 573 258C545.7 257 518.3 266 491 266C463.7 266 436.3 257 409 255C381.7 253 354.3 258 327 259C299.7 260 272.3 257 245.2 259.5C218 262 191 270 163.8 272.5C136.7 275 109.3 272 82 268.5C54.7 265 27.3 261 13.7 259L0 257Z" fill="#e31b5a"></path></svg>